<?xml version="1.0" standalone="no"?>
<!DOCTYPE svg PUBLIC "-//W3C//DTD SVG 20010904//EN"
 "http://www.w3.org/TR/2001/REC-SVG-20010904/DTD/svg10.dtd">
<svg version="1.0" xmlns="http://www.w3.org/2000/svg"
 width="321.000000pt" height="321.000000pt" viewBox="0 0 321.000000 321.000000"
 preserveAspectRatio="xMidYMid meet">
<metadata>
Created by potrace 1.14, written by Peter Selinger 2001-2017
</metadata>
<g transform="translate(0.000000,321.000000) scale(0.100000,-0.100000)"
fill="#000000" stroke="none">
<path d="M1497 3124 c-1 -1 -47 -4 -102 -8 -55 -3 -120 -9 -145 -11 -25 -3
-65 -7 -90 -9 -25 -3 -45 -5 -45 -6 0 -1 -11 -3 -25 -6 -26 -4 -87 -15 -105
-19 -5 -2 -23 -5 -40 -8 -69 -13 -92 -18 -125 -28 -19 -6 -42 -13 -50 -16 -20
-8 -20 -8 -55 -18 -71 -20 -209 -86 -290 -138 -125 -82 -214 -202 -275 -372
-18 -49 -36 -99 -41 -110 -5 -11 -11 -32 -13 -48 -3 -15 -7 -35 -10 -45 -3 -9
-7 -28 -10 -42 -25 -133 -34 -187 -34 -200 0 -8 -2 -28 -6 -45 -13 -63 -27
-264 -28 -385 0 -150 13 -307 43 -505 13 -86 68 -306 81 -321 5 -7 8 -16 7
-20 -4 -25 64 -171 113 -242 42 -63 99 -122 116 -122 7 0 10 -4 7 -10 -3 -5
-1 -10 6 -10 7 0 20 -6 28 -14 52 -47 278 -141 421 -174 25 -6 59 -14 75 -18
17 -4 35 -8 40 -9 15 -4 65 -12 115 -20 25 -4 56 -9 70 -11 147 -26 569 -38
755 -21 44 4 97 8 118 9 20 1 37 5 37 8 0 3 24 6 53 8 28 1 72 6 97 11 25 5
74 15 110 22 36 6 70 16 76 20 6 5 13 6 16 3 3 -2 23 2 44 9 22 8 59 20 84 28
25 7 50 15 55 19 6 3 28 12 50 19 22 8 42 17 45 20 3 3 35 21 71 39 36 18 75
41 87 52 12 11 25 20 30 20 5 0 29 23 53 51 24 28 49 57 56 64 39 41 130 250
154 355 23 101 58 281 63 325 29 237 24 685 -10 865 -3 19 -8 49 -11 65 -15
108 -80 346 -97 357 -6 4 -8 8 -4 8 11 0 -46 122 -88 187 -38 61 -95 120 -155
165 -46 34 -167 98 -185 98 -8 0 -14 5 -14 10 0 6 -8 10 -18 10 -10 0 -22 4
-27 9 -14 14 -97 41 -107 35 -4 -3 -8 -1 -8 4 0 5 -10 12 -22 15 -222 49 -297
64 -374 73 -18 1 -51 6 -75 9 -96 12 -481 27 -492 19z"/>
</g>
</svg>
